<svg role="img" viewBox="0 0 24 24" xmlns="http://www.w3.org/2000/svg" id="Instagram--Streamline-Simple-Icons" height="24" width="24">
  <desc>
    Instagram Streamline Icon: https://streamlinehq.com
  </desc>
  <title>Instagram</title>
  <path d="M7.0301 0.084c-1.2768 0.0602 -2.1487 0.264 -2.911 0.5634 -0.7888 0.3075 -1.4575 0.72 -2.1228 1.3877 -0.6652 0.6677 -1.075 1.3368 -1.3802 2.127 -0.2954 0.7638 -0.4956 1.6365 -0.552 2.914 -0.0564 1.2775 -0.0689 1.6882 -0.0626 4.947 0.0062 3.2586 0.0206 3.6671 0.0825 4.9473 0.061 1.2765 0.264 2.1482 0.5635 2.9107 0.308 0.7889 0.72 1.4573 1.388 2.1228 0.6679 0.6655 1.3365 1.0743 2.1285 1.38 0.7632 0.295 1.6361 0.4961 2.9134 0.552 1.2773 0.056 1.6884 0.069 4.9462 0.0627 3.2578 -0.0062 3.668 -0.0207 4.9478 -0.0814 1.28 -0.0607 2.147 -0.2652 2.9098 -0.5633 0.7889 -0.3086 1.4578 -0.72 2.1228 -1.3881 0.665 -0.6682 1.0745 -1.3378 1.3795 -2.1284 0.2957 -0.7632 0.4966 -1.636 0.552 -2.9124 0.056 -1.2809 0.0692 -1.6898 0.063 -4.948 -0.0063 -3.2583 -0.021 -3.6668 -0.0817 -4.9465 -0.0607 -1.2797 -0.264 -2.1487 -0.5633 -2.9117 -0.3084 -0.7889 -0.72 -1.4568 -1.3876 -2.1228C21.2982 1.33 20.628 0.9208 19.8378 0.6165 19.074 0.321 18.2017 0.1197 16.9244 0.0645 15.6471 0.0093 15.236 -0.005 11.977 0.0014 8.718 0.0076 8.31 0.0215 7.0301 0.0839m0.1402 21.6932c-1.17 -0.0509 -1.8053 -0.2453 -2.2287 -0.408 -0.5606 -0.216 -0.96 -0.4771 -1.3819 -0.895 -0.422 -0.4178 -0.6811 -0.8186 -0.9 -1.378 -0.1644 -0.4234 -0.3624 -1.058 -0.4171 -2.228 -0.0595 -1.2645 -0.072 -1.6442 -0.079 -4.848 -0.007 -3.2037 0.0053 -3.583 0.0607 -4.848 0.05 -1.169 0.2456 -1.805 0.408 -2.2282 0.216 -0.5613 0.4762 -0.96 0.895 -1.3816 0.4188 -0.4217 0.8184 -0.6814 1.3783 -0.9003 0.423 -0.1651 1.0575 -0.3614 2.227 -0.4171 1.2655 -0.06 1.6447 -0.072 4.848 -0.079 3.2033 -0.007 3.5835 0.005 4.8495 0.0608 1.169 0.0508 1.8053 0.2445 2.228 0.408 0.5608 0.216 0.96 0.4754 1.3816 0.895 0.4217 0.4194 0.6816 0.8176 0.9005 1.3787 0.1653 0.4217 0.3617 1.056 0.4169 2.2263 0.0602 1.2655 0.0739 1.645 0.0796 4.848 0.0058 3.203 -0.0055 3.5834 -0.061 4.848 -0.051 1.17 -0.245 1.8055 -0.408 2.2294 -0.216 0.5604 -0.4763 0.96 -0.8954 1.3814 -0.419 0.4215 -0.8181 0.6811 -1.3783 0.9 -0.4224 0.1649 -1.0577 0.3617 -2.2262 0.4174 -1.2656 0.0595 -1.6448 0.072 -4.8493 0.079 -3.2045 0.007 -3.5825 -0.006 -4.848 -0.0608M16.953 5.5864A1.44 1.44 0 1 0 18.39 4.144a1.44 1.44 0 0 0 -1.437 1.4424M5.8385 12.012c0.0067 3.4032 2.7706 6.1557 6.173 6.1493 3.4026 -0.0065 6.157 -2.7701 6.1506 -6.1733 -0.0065 -3.4032 -2.771 -6.1565 -6.174 -6.1498 -3.403 0.0067 -6.156 2.771 -6.1496 6.1738M8 12.0077a4 4 0 1 1 4.008 3.9921A3.9996 3.9996 0 0 1 8 12.0077" fill="#000000" stroke-width="1"></path>
</svg>