<svg version="1.1" id="Layer_1" xmlns="http://www.w3.org/2000/svg" xmlns:xlink="http://www.w3.org/1999/xlink" x="0px" y="0px"
	 width="100%" viewBox="0 0 992 992" enable-background="new 0 0 992 992" xml:space="preserve">
<path fill="#000000" opacity="1.000000" stroke="none" 
	d="
M993.000000,697.562500 
	C977.533142,693.433105 961.989624,689.109375 946.612244,684.258789 
	C861.899170,657.537415 783.973755,617.828247 714.173340,562.573792 
	C663.764343,522.669739 620.841370,475.783173 582.981384,423.951691 
	C550.446289,379.410095 525.744324,330.602814 502.762573,280.771759 
	C501.804962,278.695404 501.362946,276.290771 499.302734,274.813324 
	C496.803619,274.923279 496.099823,277.030426 495.103821,278.651978 
	C481.239166,301.224213 467.481262,323.862427 453.520203,346.374695 
	C451.387115,349.814331 451.499512,352.479004 453.431335,355.954285 
	C474.286682,393.471985 498.373871,428.827240 524.584351,462.766357 
	C553.669617,500.428101 585.390320,535.730164 620.158020,568.227234 
	C668.639587,613.542419 721.546997,652.685608 781.640198,681.373535 
	C816.066833,697.808594 850.897766,713.408386 884.646118,731.228516 
	C917.807312,748.738647 950.620361,766.867188 980.924744,789.137817 
	C983.815613,791.262329 986.833679,793.334351 988.908447,796.283203 
	C988.012756,797.498901 987.231140,797.209473 986.520813,796.769104 
	C959.618225,780.093506 929.748779,770.604675 899.816895,761.450439 
	C864.313049,750.591980 828.057800,743.067688 791.231689,738.155334 
	C764.635559,734.607483 737.927124,732.490356 711.149963,732.516663 
	C664.867432,732.562195 619.403442,739.595032 574.522461,750.644897 
	C534.096497,760.597900 494.578766,773.611938 454.882690,786.031616 
	C425.033997,795.370422 395.164337,804.740112 364.202850,809.730530 
	C342.127106,813.288818 319.911804,813.811829 297.520050,812.582092 
	C258.495453,810.438904 220.418045,803.216736 182.779510,793.216797 
	C175.686920,791.332397 168.447189,789.694336 160.534332,786.077698 
	C167.221252,783.759888 173.030792,783.597046 178.630737,782.861328 
	C216.024246,777.948792 252.529785,769.338806 287.872345,756.239746 
	C325.806152,742.180481 363.491150,727.450928 401.307526,713.073669 
	C444.117249,696.798035 487.640930,682.879395 532.668152,674.104980 
	C551.559082,670.423706 570.550598,667.402588 589.742493,665.526184 
	C608.639221,663.678772 627.529541,662.453003 646.513611,662.678345 
	C647.973022,662.695679 649.555359,662.930176 651.529541,660.611755 
	C608.738037,629.543640 569.706970,594.267151 533.419006,555.962158 
	C497.175903,517.704468 463.605347,477.204956 431.895538,433.352417 
	C396.514374,477.771515 361.666168,521.521484 326.713745,565.402283 
	C323.685059,563.380554 323.176605,560.624695 322.123993,558.292969 
	C310.681732,532.945923 299.317169,507.563873 287.899353,482.205780 
	C285.214935,476.243866 284.184052,476.209625 280.000275,481.414276 
	C229.265945,544.528442 173.215088,602.199646 107.246094,649.657959 
	C86.938034,664.267700 65.894562,677.728333 43.279205,688.566101 
	C41.243526,689.541626 39.329231,691.062744 35.394939,690.660828 
	C120.091652,591.266418 204.211426,492.549164 288.156433,394.036926 
	C291.051422,394.609955 291.930725,396.575714 293.143219,398.066650 
	C302.815704,409.960144 312.434814,421.897064 322.068512,433.822113 
	C326.278931,439.033997 327.331024,439.086151 331.097839,433.355896 
	C350.039886,404.540405 368.891388,375.665436 387.789795,346.821259 
	C418.193329,300.417145 448.591949,254.009842 479.042358,207.636505 
	C482.469818,202.416763 485.405396,196.818756 489.493530,192.231674 
	C492.011047,192.952347 492.732513,194.770966 493.758118,196.209488 
	C529.257751,246.001831 564.732910,295.811646 600.209900,345.620148 
	C600.693176,346.298737 601.133545,347.008545 601.629578,347.677368 
	C605.321899,352.655609 606.745117,352.804138 610.671997,347.936401 
	C625.946106,329.002625 641.122498,309.990051 656.340027,291.010620 
	C661.134583,285.030853 666.032898,279.131500 670.708740,273.060547 
	C672.974976,270.118134 674.589722,269.565125 677.117310,272.925507 
	C713.975830,321.928680 750.906860,370.877258 787.847595,419.818512 
	C824.085449,467.828461 860.363953,515.807739 896.605896,563.814636 
	C928.130676,605.573181 959.628845,647.351868 991.144531,689.117310 
	C991.543457,689.646057 992.016907,690.118591 992.727783,690.808655 
	C993.000000,693.041687 993.000000,695.083313 993.000000,697.562500 
M704.425903,469.099426 
	C732.105957,498.391052 760.113708,527.306213 795.444397,548.205994 
	C751.183777,481.840607 712.048645,413.141815 690.080750,335.694763 
	C687.731567,336.851379 686.928040,338.078674 686.135559,339.353516 
	C674.184875,358.577789 662.257629,377.816864 650.221130,396.987305 
	C648.470337,399.775665 648.524719,401.799713 650.591980,404.537811 
	C667.353699,426.739380 685.339294,447.910309 704.425903,469.099426 
z"/>
<path fill="#000000" opacity="1.000000" stroke="none" 
	d="
M1.000000,743.333313 
	C31.327343,739.596375 60.930336,732.673523 90.163872,724.173767 
	C178.489426,698.492676 260.149689,658.282837 337.987274,609.851746 
	C369.830475,590.038696 400.887817,569.067200 430.403534,545.879700 
	C431.030762,545.386902 431.749695,545.010925 432.434937,544.574646 
	C433.846252,546.109741 432.535889,546.850769 431.862762,547.596191 
	C364.740509,621.926697 288.112091,683.854004 197.151108,726.957886 
	C171.951248,738.899475 145.804230,748.255188 118.172539,752.827148 
	C98.248032,756.123779 78.233749,757.092224 58.006222,755.613831 
	C38.812740,754.210938 20.140669,750.635803 1.376384,745.101868 
	C1.000000,744.555542 1.000000,744.111084 1.000000,743.333313 
z"/>
</svg>